<svg viewBox="0 0 16 16" xmlns="http://www.w3.org/2000/svg">
  <path d="M8 0a8 8 0 1 0 8 8 8 8 0 0 0-8-8z" fill="#2ebd59"/>
  <path d="M11.67 11.54c-.14.24-.45.31-.69.17-1.88-1.15-4.24-1.41-7.03-.77a.498.498 0 0 1-.6-.38c-.06-.27.11-.54.38-.6 3.05-.7 5.66-.4 7.77.89.24.14.31.45.16.69z"/>
  <path d="M12.65 9.36c-.18.29-.57.39-.86.21-2.15-1.32-5.43-1.7-7.97-.93a.498.498 0 0 1-.78-.42c-.1-.33.09-.68.42-.78 2.91-.88 6.52-.45 8.99 1.06.29.18.39.57.21.86z"/>
  <path d="M12.73 7.09c-2.58-1.53-6.83-1.67-9.29-.93a.498.498 0 0 1-.93-.5c.12-.4.54-.52.93-.63 2.83-.86 7.52-.69 10.49 1.07.36.21.47.67.26 1.03-.21.36-.67.47-1.03.26z"/>
</svg>
